<svg xmlns="http://www.w3.org/2000/svg" xmlns:xlink="http://www.w3.org/1999/xlink" viewBox="0 0 237.29 237.29"><defs><clipPath id="a"><rect x="52.73" y="48.34" width="131.83" height="145.01" style="fill:none"/></clipPath><clipPath id="b"><path d="M112.45,56.38a6.24,6.24,0,0,1,12.43,0v62.27a6.24,6.24,0,1,1-12.43,1,6,6,0,0,1,0-1ZM153.8,89.69a6.22,6.22,0,1,1,8.79-8.79,62.27,62.27,0,1,1-88.06.17l.17-.17a6.22,6.22,0,0,1,8.79,8.79,49.79,49.79,0,1,0,70.41.1Z" style="fill:none"/></clipPath><clipPath id="c"><rect x="43.94" y="43.94" width="149.4" height="149.4" style="fill:none"/></clipPath><clipPath id="d"><rect x="8.79" y="4.39" width="219.71" height="228.5" style="fill:none"/></clipPath></defs><title>log-out</title><g style="clip-path:url(#b)"><g style="clip-path:url(#c)"><g style="clip-path:url(#d)"><g style="clip-path:url(#c)"><rect x="12.44" y="6.24" width="212.37" height="224.85"/><g style="clip-path:url(#a)"><rect width="237.29" height="237.29"/></g></g></g></g></g></svg>