<svg xmlns="http://www.w3.org/2000/svg" xmlns:xlink="http://www.w3.org/1999/xlink" viewBox="0 0 2189.17 832.55"><defs><linearGradient id="a" x1="1396.6" y1="963.11" x2="2309.74" y2="218.55" gradientTransform="translate(3717.19 -442.09) rotate(145.33)" gradientUnits="userSpaceOnUse"><stop offset="0" stop-color="#336580"/><stop offset="1" stop-color="#fff" stop-opacity="0.5"/></linearGradient><linearGradient id="b" x1="513.25" y1="0.3" x2="672.55" y2="528.12" gradientTransform="translate(0 0)" xlink:href="#a"/></defs><title>home-ilustration</title><path d="M1430.54,653c-130.75-189.08-83.47-448.35,105.6-579.1s448.35-83.48,579.11,105.6,83.47,448.34-105.6,579.1S1561.3,842.1,1430.54,653Z" style="opacity:0.2;fill:url(#a)"/><rect x="507.36" y="227.44" width="265" height="384.72" style="opacity:0.5;fill:url(#b)"/><path d="M383.64,584.22a3.3,3.3,0,0,0,3.18,3.4h95.29a3.29,3.29,0,0,0,3.17-3.4V230.84a3.29,3.29,0,0,0-3.17-3.4H386.82a3.3,3.3,0,0,0-3.18,3.4Z" style="fill:none;stroke:#336580;stroke-linecap:round;stroke-miterlimit:10;stroke-width:4px"/><path d="M282,584.22a3.3,3.3,0,0,0,3.18,3.4h95.29a3.29,3.29,0,0,0,3.17-3.4V230.84a3.29,3.29,0,0,0-3.17-3.4H285.18a3.3,3.3,0,0,0-3.18,3.4Z" style="fill:none;stroke:#336580;stroke-linecap:round;stroke-miterlimit:10;stroke-width:4px"/><path d="M180.37,584.22a3.29,3.29,0,0,0,3.17,3.4h95.29a3.29,3.29,0,0,0,3.17-3.4V230.84a3.29,3.29,0,0,0-3.17-3.4H183.54a3.29,3.29,0,0,0-3.17,3.4Z" style="fill:none;stroke:#336580;stroke-linecap:round;stroke-miterlimit:10;stroke-width:4px"/><path d="M136.61,584.22c0,1.88.61,3.4,1.37,3.4h41c.75,0,1.37-1.52,1.37-3.4V230.84c0-1.88-.62-3.4-1.37-3.4H138c-.76,0-1.37,1.52-1.37,3.4Z" style="fill:none;stroke:#336580;stroke-linecap:round;stroke-miterlimit:10;stroke-width:4px"/><path d="M1417.14,471.15a2.1,2.1,0,0,1-1.89,2.25H901.93a2.09,2.09,0,0,1-1.89-2.25V235a2.09,2.09,0,0,1,1.89-2.25h513.32a2.1,2.1,0,0,1,1.89,2.25Z" style="fill:none;stroke:#336580;stroke-miterlimit:10;stroke-width:10px"/><path d="M1417.36,471.15a2.1,2.1,0,0,1-1.89,2.25H902.15a2.1,2.1,0,0,1-1.89-2.25V235a2.1,2.1,0,0,1,1.89-2.25h513.32a2.1,2.1,0,0,1,1.89,2.25Z" style="fill:#336580;opacity:0.1"/><path d="M2,612.16H54.34" style="fill:#fff;stroke:#336580;stroke-linecap:round;stroke-miterlimit:10;stroke-width:4px"/><polyline points="244.5 612.16 510.24 612.16 510.24 228.39 772.36 228.39 772.36 612.16 1079.05 612.16" style="fill:none;stroke:#336580;stroke-linecap:round;stroke-miterlimit:10;stroke-width:4px"/><path d="M383.64,585.17a3.3,3.3,0,0,0,3.18,3.4h95.29a3.3,3.3,0,0,0,3.17-3.4V231.78a3.29,3.29,0,0,0-3.17-3.39H386.82a3.3,3.3,0,0,0-3.18,3.39Z" style="fill:#336580;stroke:#336580;stroke-linecap:round;stroke-miterlimit:10;stroke-width:4px;opacity:0.30000000000000004"/><path d="M399.52,262.34h68.15" style="fill:#fff;stroke:#336580;stroke-linecap:round;stroke-miterlimit:10;stroke-width:4px"/><path d="M399.52,281.86h68.15" style="fill:#fff;stroke:#336580;stroke-linecap:round;stroke-miterlimit:10;stroke-width:4px"/><path d="M399.52,302.23h68.15" style="fill:#fff;stroke:#336580;stroke-linecap:round;stroke-miterlimit:10;stroke-width:4px"/><path d="M399.52,527.15h68.15" style="fill:#fff;stroke:#336580;stroke-linecap:round;stroke-miterlimit:10;stroke-width:4px"/><path d="M399.52,546.68h68.15" style="fill:#fff;stroke:#336580;stroke-linecap:round;stroke-miterlimit:10;stroke-width:4px"/><path d="M399.52,567.05h68.15" style="fill:#fff;stroke:#336580;stroke-linecap:round;stroke-miterlimit:10;stroke-width:4px"/><path d="M465.7,444.9V408.48" style="fill:#fff;stroke:#336580;stroke-linecap:round;stroke-miterlimit:10;stroke-width:4px"/><path d="M470.36,390.56a4.66,4.66,0,1,1-4.66-4.79A4.73,4.73,0,0,1,470.36,390.56Z" style="fill:#336580;stroke:#336580;stroke-miterlimit:10"/><path d="M467.67,604.11V588.57" style="fill:#fff;stroke:#336580;stroke-linecap:round;stroke-miterlimit:10;stroke-width:4px"/><path d="M399.52,604.11V588.57" style="fill:#fff;stroke:#336580;stroke-linecap:round;stroke-miterlimit:10;stroke-width:4px"/><path d="M282,585.17a3.3,3.3,0,0,0,3.18,3.4h95.29a3.3,3.3,0,0,0,3.17-3.4V231.78a3.29,3.29,0,0,0-3.17-3.39H285.18a3.3,3.3,0,0,0-3.18,3.39Z" style="fill:#336580;stroke:#336580;stroke-linecap:round;stroke-miterlimit:10;stroke-width:4px;opacity:0.30000000000000004"/><path d="M297.89,262.34H366" style="fill:#fff;stroke:#336580;stroke-linecap:round;stroke-miterlimit:10;stroke-width:4px"/><path d="M297.89,281.86H366" style="fill:#fff;stroke:#336580;stroke-linecap:round;stroke-miterlimit:10;stroke-width:4px"/><path d="M297.89,302.23H366" style="fill:#fff;stroke:#336580;stroke-linecap:round;stroke-miterlimit:10;stroke-width:4px"/><path d="M297.89,527.15H366" style="fill:#fff;stroke:#336580;stroke-linecap:round;stroke-miterlimit:10;stroke-width:4px"/><path d="M297.89,546.68H366" style="fill:#fff;stroke:#336580;stroke-linecap:round;stroke-miterlimit:10;stroke-width:4px"/><path d="M297.89,567.05H366" style="fill:#fff;stroke:#336580;stroke-linecap:round;stroke-miterlimit:10;stroke-width:4px"/><path d="M364.06,444.9V408.48" style="fill:#fff;stroke:#336580;stroke-linecap:round;stroke-miterlimit:10;stroke-width:4px"/><path d="M368.73,390.56a4.67,4.67,0,1,1-4.67-4.79A4.73,4.73,0,0,1,368.73,390.56Z" style="fill:#336580;stroke:#336580;stroke-miterlimit:10"/><path d="M366,604.11V588.57" style="fill:#fff;stroke:#336580;stroke-linecap:round;stroke-miterlimit:10;stroke-width:4px"/><path d="M297.89,604.11V588.57" style="fill:#fff;stroke:#336580;stroke-linecap:round;stroke-miterlimit:10;stroke-width:4px"/><path d="M180.37,585.17a3.3,3.3,0,0,0,3.17,3.4h95.29a3.3,3.3,0,0,0,3.17-3.4V231.78a3.29,3.29,0,0,0-3.17-3.39H183.54a3.29,3.29,0,0,0-3.17,3.39Z" style="fill:#336580;stroke:#336580;stroke-linecap:round;stroke-miterlimit:10;stroke-width:4px;opacity:0.7000000000000001"/><path d="M136.61,585.17c0,1.87.61,3.4,1.37,3.4h41c.75,0,1.37-1.53,1.37-3.4V231.78c0-1.87-.62-3.39-1.37-3.39H138c-.76,0-1.37,1.52-1.37,3.39Z" style="fill:#336580;stroke:#336580;stroke-linecap:round;stroke-miterlimit:10;stroke-width:4px;opacity:0.30000000000000004"/><path d="M143.45,262.34h29.33" style="fill:#fff;stroke:#336580;stroke-linecap:round;stroke-miterlimit:10;stroke-width:4px"/><path d="M143.45,281.86h29.33" style="fill:#fff;stroke:#336580;stroke-linecap:round;stroke-miterlimit:10;stroke-width:4px"/><path d="M143.45,302.23h29.33" style="fill:#fff;stroke:#336580;stroke-linecap:round;stroke-miterlimit:10;stroke-width:4px"/><path d="M264.39,604.11V588.57" style="fill:#fff;stroke:#336580;stroke-linecap:round;stroke-miterlimit:10;stroke-width:4px"/><path d="M110.82,501s-10,101.49-8.82,102c34.47,13.34,97.14-2.07,97.14-2.07S180.42,505.62,181.51,506,110.82,501,110.82,501Z" style="fill:#fff"/><path d="M104.78,623.23c-8.78-8.05,6-124.26,6-124.26" style="fill:none;stroke:#336580;stroke-linecap:round;stroke-miterlimit:10;stroke-width:4px"/><path d="M199.48,601.4c-43.76,5.26-51.14,11-85.43,4.25" style="fill:none;stroke:#336580;stroke-linecap:round;stroke-miterlimit:10;stroke-width:4px"/><path d="M206.9,628.39C192.57,579.31,181.51,506,181.51,506" style="fill:none;stroke:#336580;stroke-linecap:round;stroke-miterlimit:10;stroke-width:4px"/><path d="M132.23,512.81c-22.91-6.53-38.67-42.88-27.08-65.86s38.18-32.79,65.78-21.71c38.63,15.5,30.35,69,30.36,70.21C201.29,495.45,164.19,527.9,132.23,512.81Z" style="fill:#fff;stroke:#336580;stroke-linecap:round;stroke-miterlimit:10;stroke-width:4px"/><path d="M218.88,543.71c.6,3.16-2.8,6.48-7.61,7.4s-9.2-.9-9.81-4.06,2.8-6.48,7.61-7.4S218.27,540.54,218.88,543.71Z" style="fill:#fff;stroke:#336580;stroke-linecap:round;stroke-miterlimit:10;stroke-width:4px"/><path d="M136.47,534.77c39.16,22.42,64.88,12.31,64.88,12.31" style="fill:none;stroke:#336580;stroke-linecap:round;stroke-miterlimit:10;stroke-width:4px"/><path d="M251.42,578.19a.71.71,0,0,0,.73.68h21.79a.7.7,0,0,0,.72-.68V507.46a.7.7,0,0,0-.72-.68H252.15a.7.7,0,0,0-.73.68Z" style="fill:#fff;stroke:#336580;stroke-linecap:round;stroke-miterlimit:10;stroke-width:4px"/><path d="M212.19,574.84a.69.69,0,0,0,.56.81L234,580.37a.69.69,0,0,0,.85-.51l15.3-69.05a.7.7,0,0,0-.56-.82l-21.28-4.72a.7.7,0,0,0-.85.51Z" style="fill:#fff;stroke:#336580;stroke-linecap:round;stroke-miterlimit:10;stroke-width:4px"/><path d="M181.57,376.26H282" style="fill:#fff;stroke:#336580;stroke-linecap:round;stroke-miterlimit:10;stroke-width:4px"/><path d="M195.52,346.51a.71.71,0,0,0-.68.73V369a.7.7,0,0,0,.68.72h70.73a.7.7,0,0,0,.68-.72V347.24a.71.71,0,0,0-.68-.73Z" style="fill:#fff;stroke:#336580;stroke-linecap:round;stroke-miterlimit:10;stroke-width:4px"/><path d="M198.2,340.14a.7.7,0,0,0,.83.55l21.5-3.55a.69.69,0,0,0,.61-.78l-11.51-69.79a.7.7,0,0,0-.83-.55l-21.5,3.54a.71.71,0,0,0-.61.79Z" style="fill:#fff;stroke:#336580;stroke-linecap:round;stroke-miterlimit:10;stroke-width:4px"/><path d="M674.14,579.85c0,2,1.28,3.63,2.87,3.63l86.17,29.31c1.59,0,2.87-1.62,2.87-3.62V232c0-2-1.28-3.62-2.87-3.62L677,257.7c-1.59,0-2.87,3.63-2.87,3.63Z" style="fill:#fff;stroke:#336580;stroke-linecap:round;stroke-miterlimit:10;stroke-width:4px"/><path d="M694.54,368.16c0,.47.7.85,1.56.85l46.84-2.89c.87,0,1.57-.38,1.57-.84V277.62c0-.47-.7-.85-1.57-.85L696.1,291.13a2.4,2.4,0,0,0-1.56.84Z" style="fill:#336580;stroke:#336580;stroke-linecap:round;stroke-miterlimit:10;stroke-width:4px;opacity:0.30000000000000004"/><path d="M616,497s-.8,108.58,3,110.12c35.17,14.09,94,5.69,94,5.69S683.19,504.58,684.3,505,616,497,616,497Z" style="fill:#fff"/><path d="M617.93,634.53C621.33,622.8,616,495,616,495" style="fill:none;stroke:#336580;stroke-linecap:round;stroke-miterlimit:10;stroke-width:4px"/><path d="M710.44,613.64c-46.25,5.56-50.23,2-87.56-5.33" style="fill:none;stroke:#336580;stroke-linecap:round;stroke-miterlimit:10;stroke-width:4px"/><path d="M724.17,627.64C706.6,623.46,684.3,505,684.3,505" style="fill:none;stroke:#336580;stroke-linecap:round;stroke-miterlimit:10;stroke-width:4px"/><path d="M652,514.27c-24.26,2.73-53.37-25.59-51.33-51.89s23.44-46,53.91-46.21c42.66-.34,55.64,53.56,56.13,54.73C710.72,470.9,688.19,516.12,652,514.27Z" style="fill:#fff;stroke:#336580;stroke-linecap:round;stroke-miterlimit:10;stroke-width:4px"/><path d="M634.31,528c-9,20.27-2.68,25.88-2.68,25.88" style="fill:none;stroke:#336580;stroke-linecap:round;stroke-miterlimit:10;stroke-width:4px"/><path d="M614.57,505.19s-36.71-23.86-37.67-6.7c-2.14,38.11-11.8,88.73,8.44,87.71s31.6-13.33,30.53-79.6" style="fill:#fff;stroke:#336580;stroke-linecap:round;stroke-miterlimit:10;stroke-width:4px"/><path d="M614,505c56.51,24.73,53.08,39.18,53.08,39.18s-16.5,30.33-64.73,17.25" style="fill:none;stroke:#336580;stroke-linecap:round;stroke-miterlimit:10;stroke-width:4px"/><path d="M632.72,553.58s8.88-3.14,17.83-6.12" style="fill:none;stroke:#336580;stroke-linecap:round;stroke-miterlimit:10;stroke-width:4px"/><path d="M665.37,539.87c1.69,2.84-.44,7.22-4.75,9.79s-9.18,2.35-10.87-.49.44-7.21,4.75-9.79S663.68,537,665.37,539.87Z" style="fill:#fff;stroke:#336580;stroke-linecap:round;stroke-miterlimit:10;stroke-width:4px"/><path d="M1443.93,489.36c-6.28,25.13-15.7,118.12-2.83,119.76,54.6,7,112.15,1.82,112.15,1.82s2.38-112.29-15.41-128.25C1537,481.9,1443.93,489.36,1443.93,489.36Z" style="fill:#fff;stroke:#336580;stroke-miterlimit:10"/><path d="M1447.39,631.84c-27.81-52.56-1.83-149.15-1.83-149.15" style="fill:none;stroke:#336580;stroke-linecap:round;stroke-miterlimit:10;stroke-width:4px"/><path d="M1550.8,631.84c11.1-81,1.35-110-11.72-156.42" style="fill:none;stroke:#336580;stroke-linecap:round;stroke-miterlimit:10;stroke-width:4px"/><path d="M1449.72,492.15c-18.36-19.42-15.47-66.36,6.65-84.26s51.91-13.69,72.46,13.07c28.77,37.47-5.09,89.32-5.68,90.64C1523.15,511.6,1472.43,525.54,1449.72,492.15Z" style="fill:#fff;stroke:#336580;stroke-linecap:round;stroke-miterlimit:10;stroke-width:4px"/><path d="M1470,536.47c22,33.82,33.29,28.91,33.29,28.91" style="fill:none;stroke:#336580;stroke-linecap:round;stroke-miterlimit:10;stroke-width:4px"/><path d="M1545.24,497.45c26.69,53.14,38.54,25,38.54,25" style="fill:none;stroke:#336580;stroke-linecap:round;stroke-miterlimit:10;stroke-width:4px"/><path d="M1553.85,610.89c-58.32,8-68.14,4.31-113.82-1.29" style="fill:none;stroke:#336580;stroke-linecap:round;stroke-miterlimit:10;stroke-width:4px"/><path d="M1585.17,540.93c-2.6-3.64-1.78-9.2,1.82-12.42s8.62-2.88,11.21.76,1.77,9.19-1.83,12.42S1587.76,544.57,1585.17,540.93Z" style="fill:#fff;stroke:#336580;stroke-linecap:round;stroke-miterlimit:10;stroke-width:4px"/><path d="M1510.24,533.66V593.1s72.1,0,78.47-35.66c0,0,.37-53.23-1.59-50.78-26,32.35-77.94,29.38-76.88,27" style="fill:#fff;stroke:#336580;stroke-linecap:round;stroke-miterlimit:10;stroke-width:4px"/><path d="M1502.82,561.1c3.08-3.14,8.08-2.59,11.18,1.23s3.12,9.45,0,12.59-8.07,2.58-11.17-1.24S1499.75,564.23,1502.82,561.1Z" style="fill:#fff;stroke:#336580;stroke-linecap:round;stroke-miterlimit:10;stroke-width:4px"/><path d="M1209.42,610h146.65" style="fill:#fff;stroke:#336580;stroke-linecap:round;stroke-miterlimit:10;stroke-width:4px"/><path d="M963.32,450.36c0,.36,1.34.58,2.94.49l87-5c1.6-.09,2.88-.45,2.86-.81l-3.86-68c0-.36-1.34-.58-2.94-.49l-87,4.94c-1.6.09-2.89.46-2.87.82Z" style="fill:#fff;stroke:#336580;stroke-linecap:round;stroke-miterlimit:10;stroke-width:4px"/><path d="M1345,378.39c.27,0,.6-.92.74-2.13l7.53-65.43c.14-1.2,0-2.2-.24-2.23l-51.17-5.9c-.27,0-.61.92-.74,2.13l-7.54,65.43c-.13,1.2,0,2.21.24,2.24Z" style="fill:#fff;stroke:#336580;stroke-linecap:round;stroke-miterlimit:10;stroke-width:4px"/><path d="M1023.81,257.14c0-.35-1.34-.46-2.88-.24L937.4,268.46c-1.54.21-2.74.66-2.7,1l9,65.33c0,.34,1.33.45,2.87.24l83.53-11.56c1.54-.21,2.75-.67,2.7-1Z" style="fill:#fff;stroke:#336580;stroke-linecap:round;stroke-miterlimit:10;stroke-width:4px"/><path d="M923.13,300.2c-.37,0-.72,1.32-.77,3l-3,89.48c-.05,1.65.2,3,.58,3l70,2.37c.37,0,.71-1.31.77-3l3-89.48c.05-1.65-.2-3-.57-3Z" style="fill:#fff;stroke:#336580;stroke-linecap:round;stroke-miterlimit:10;stroke-width:4px"/><path d="M1358.31,356.45c0,.51,1.35.84,3,.74l86.8-5.56c1.6-.1,2.87-.59,2.85-1.1l-5.06-95.71c0-.51-1.35-.84-2.95-.74l-86.8,5.56c-1.6.1-2.87.59-2.85,1.1Z" style="fill:#fff;stroke:#336580;stroke-linecap:round;stroke-miterlimit:10;stroke-width:4px"/><path d="M1242.24,261.88c.08-.45-.82-1-2-1.16l-64.71-10.06c-1.19-.19-2.23,0-2.31.49l-15.58,86c-.08.45.81,1,2,1.16l64.71,10.06c1.19.18,2.22,0,2.31-.49Z" style="fill:#fff;stroke:#336580;stroke-linecap:round;stroke-miterlimit:10;stroke-width:4px"/><path d="M1169.65,398.8c0,.26.87.42,1.92.35l56.7-3.53c1-.07,1.88-.33,1.86-.59l-2.52-48.69c0-.26-.87-.41-1.91-.35l-56.7,3.54c-1,.06-1.88.33-1.87.58Z" style="fill:#fff;stroke:#336580;stroke-linecap:round;stroke-miterlimit:10;stroke-width:4px"/><path d="M1193.22,362.15c.39,0,.51-1.49.26-3.23L1180,264.61c-.25-1.73-.77-3.1-1.15-3.05l-73.56,8.95c-.39.05-.51,1.49-.26,3.23l13.52,94.3c.24,1.74.76,3.11,1.15,3.06Z" style="fill:#fff;stroke:#336580;stroke-linecap:round;stroke-miterlimit:10;stroke-width:4px"/><path d="M1416.92,415.06c.39-.05.55-1.15.36-2.46l-10.47-71.25c-.2-1.31-.67-2.33-1.06-2.29l-73.54,9.14c-.39.05-.55,1.15-.35,2.46l10.47,71.25c.19,1.31.66,2.33,1.05,2.29Z" style="fill:#fff;stroke:#336580;stroke-linecap:round;stroke-miterlimit:10;stroke-width:4px"/><path d="M1087.21,364.65c.39,0,.72-1.4.75-3.15l1.2-95.27c0-1.75-.28-3.18-.68-3.19l-74.06-2.51c-.39,0-.73,1.4-.75,3.15l-1.2,95.26c0,1.76.28,3.19.67,3.2Z" style="fill:#fff;stroke:#336580;stroke-linecap:round;stroke-miterlimit:10;stroke-width:4px"/><path d="M1066.94,329.71c-.26,0-.34.89-.19,1.93l8.1,56.23c.15,1,.47,1.85.73,1.82l48.33-6.44c.25,0,.34-.91.19-1.94l-8.1-56.23c-.15-1-.48-1.85-.73-1.82Z" style="fill:#fff;stroke:#336580;stroke-linecap:round;stroke-miterlimit:10;stroke-width:4px"/><path d="M1251.52,310c0,.34,1.2.69,2.74.78l83.48,4.69c1.54.08,2.8-.13,2.83-.47l5-64.85c0-.34-1.19-.69-2.73-.77l-83.48-4.69c-1.54-.09-2.81.12-2.84.46Z" style="fill:#fff;stroke:#336580;stroke-linecap:round;stroke-miterlimit:10;stroke-width:4px"/><path d="M1265.32,394.75c.39,0,.81-1.35,1-3.1l7.07-95c.13-1.74-.08-3.19-.47-3.23l-73.77-7.07c-.39,0-.81,1.35-.94,3.1l-7.08,95c-.13,1.75.08,3.2.48,3.24Z" style="fill:#fff;stroke:#336580;stroke-linecap:round;stroke-miterlimit:10;stroke-width:4px"/><path d="M1208.23,426.32c-.34-.08-.82.95-1.08,2.28L1193.34,501c-.25,1.34-.19,2.47.15,2.55l64.19,12.95c.34.06.82-1,1.08-2.29l13.81-72.41c.26-1.34.19-2.47-.15-2.54Z" style="fill:#fff;stroke:#336580;stroke-linecap:round;stroke-miterlimit:10;stroke-width:4px"/><path d="M1092.85,612.16c36.7,6.88,98-10.69,98-10.69s-29.17-73.91-22.59-106.11c3.27-16-77.26-.4-77.26-.4" style="fill:#fff;stroke:#336580;stroke-miterlimit:10"/><path d="M1095.42,624.47c-8.75-37-13.26-99.12-1.92-139.65" style="fill:none;stroke:#336580;stroke-linecap:round;stroke-miterlimit:10;stroke-width:4px"/><path d="M1190.82,601.47c-46.79,13.68-55.46,11.3-94,11.06" style="fill:none;stroke:#336580;stroke-linecap:round;stroke-miterlimit:10;stroke-width:4px"/><path d="M1189.7,630.15c9-48.7-19.89-55.77-25.48-132" style="fill:none;stroke:#336580;stroke-linecap:round;stroke-miterlimit:10;stroke-width:4px"/><path d="M1166.53,502.78c-19.94,17.48-63.43,10.29-77.93-14.41S1081,432.88,1108,413.76c37.81-26.76,82.8,13.23,84,14C1192,427.73,1199.92,482,1166.53,502.78Z" style="fill:#fff;stroke:#336580;stroke-linecap:round;stroke-miterlimit:10;stroke-width:4px"/><path d="M1169.34,522.34c39.15,11,48.54-17.33,48.54-17.33" style="fill:none;stroke:#336580;stroke-linecap:round;stroke-miterlimit:10;stroke-width:4px"/><path d="M1087.93,527.56c-27.24,35.33-27.2,48.22-27.2,48.22" style="fill:none;stroke:#336580;stroke-linecap:round;stroke-miterlimit:10;stroke-width:4px"/><path d="M1055.6,574.91c1.69-.48,4.14-.75,5.5.59.88.86.92,2.92,1.3,4.28,1,3.48-.49,6.92-3.27,7.7s-5.82-1.4-6.8-4.87S1052.82,575.69,1055.6,574.91Z" style="fill:#fff;stroke:#336580;stroke-linecap:round;stroke-miterlimit:10;stroke-width:4px"/><path d="M1221.45,505c-1.73.27-4.2.25-5.39-1.24-.77-1-.57-3-.79-4.41-.55-3.56,1.3-6.81,4.16-7.26s5.61,2.08,6.17,5.64S1224.3,504.56,1221.45,505Z" style="fill:#fff;stroke:#336580;stroke-linecap:round;stroke-miterlimit:10;stroke-width:4px"/><path d="M655.77,395.58c-6.29-.79-16.41-6.33-21.36-18.84,0,0-5.87,24.88-21.91,8.12,0,0-4.61,19.6-22.23,14.32,0,0,9.24,11.74,4.12,17.66-5.4,6.24-8.9,6.29-8.9,6.29s6.13,9.78-4.63,16.78" style="fill:none;stroke:#336580;stroke-linecap:round;stroke-miterlimit:10;stroke-width:4px"/><path d="M1479.15,379.23a3.53,3.53,0,1,1-1.32-4.81A3.52,3.52,0,0,1,1479.15,379.23Z" style="fill:#336580;stroke:#336580;stroke-miterlimit:10"/><line x1="1475.88" y1="368.55" x2="1473.64" y2="334.89" style="fill:none;stroke:#336580;stroke-linecap:round;stroke-miterlimit:10;stroke-width:4px"/><path d="M1495.86,381.53a3.67,3.67,0,1,1-.07-4.92A3.48,3.48,0,0,1,1495.86,381.53Z" style="fill:#336580;stroke:#336580;stroke-miterlimit:10"/><line x1="1494.56" y1="369.19" x2="1500.78" y2="337.08" style="fill:none;stroke:#336580;stroke-linecap:round;stroke-miterlimit:10;stroke-width:4px"/><path d="M1419.44,273.08a4.16,4.16,0,1,1-3.87-4.42A4.14,4.14,0,0,1,1419.44,273.08Z" style="fill:#336580;stroke:#336580;stroke-miterlimit:10"/><path d="M1306.26,258.21a4.16,4.16,0,1,1-3.86-4.42A4.15,4.15,0,0,1,1306.26,258.21Z" style="fill:#336580;stroke:#336580;stroke-miterlimit:10"/><path d="M1408.38,405.76a4.16,4.16,0,1,1-3.87-4.41A4.16,4.16,0,0,1,1408.38,405.76Z" style="fill:#336580;stroke:#336580;stroke-miterlimit:10"/><path d="M1224.76,300.39a4.16,4.16,0,1,1-3.87-4.41A4.15,4.15,0,0,1,1224.76,300.39Z" style="fill:#336580;stroke:#336580;stroke-miterlimit:10"/><path d="M1145.05,283.09a4.16,4.16,0,1,1-3.87-4.42A4.15,4.15,0,0,1,1145.05,283.09Z" style="fill:#336580;stroke:#336580;stroke-miterlimit:10"/><path d="M1241.19,445.18a4.15,4.15,0,1,1-3.86-4.41A4.15,4.15,0,0,1,1241.19,445.18Z" style="fill:#336580;stroke:#336580;stroke-miterlimit:10"/><path d="M960,312.47a4.16,4.16,0,1,1-3.86-4.41A4.15,4.15,0,0,1,960,312.47Z" style="fill:#336580;stroke:#336580;stroke-miterlimit:10"/><path d="M1016.62,402.8a4.16,4.16,0,1,1-3.87-4.41A4.15,4.15,0,0,1,1016.62,402.8Z" style="fill:#336580;stroke:#336580;stroke-miterlimit:10"/><path d="M695.11,368.16c0,.47.7.85,1.56.85l46.85-2.89c.86,0,1.56-.38,1.56-.84V277.62c0-.47-.7-.85-1.56-.85l-46.85,14.36a2.4,2.4,0,0,0-1.56.84Z" style="fill:none;stroke:#336580;stroke-linecap:round;stroke-miterlimit:10;stroke-width:4px"/><path d="M485.28,584.22V230.84a3.29,3.29,0,0,0-3.17-3.4H386.82C479.48,265.77,485.28,586.1,485.28,584.22Z" style="fill:#fff;opacity:0.30000000000000004"/><path d="M381.19,582.93V229.55a3.3,3.3,0,0,0-3.18-3.4H282.73C375.39,264.48,381.19,584.81,381.19,582.93Z" style="fill:#fff;opacity:0.30000000000000004"/><line x1="1602.71" y1="575.26" x2="1612.35" y2="592.63" style="fill:none;stroke:#336580;stroke-linecap:round;stroke-miterlimit:10;stroke-width:4px"/><line x1="1622.41" y1="552.64" x2="1640.73" y2="560.32" style="fill:none;stroke:#336580;stroke-linecap:round;stroke-miterlimit:10;stroke-width:4px"/><line x1="1631.19" y1="521.78" x2="1650.26" y2="516.23" style="fill:none;stroke:#336580;stroke-linecap:round;stroke-miterlimit:10;stroke-width:4px"/><line x1="1620.96" y1="491.32" x2="1638.42" y2="481.86" style="fill:none;stroke:#336580;stroke-linecap:round;stroke-miterlimit:10;stroke-width:4px"/><line x1="1598.56" y1="476" x2="1607.53" y2="458.28" style="fill:none;stroke:#336580;stroke-linecap:round;stroke-miterlimit:10;stroke-width:4px"/><line x1="1567.22" y1="472.35" x2="1566.03" y2="452.52" style="fill:none;stroke:#336580;stroke-linecap:round;stroke-miterlimit:10;stroke-width:4px"/><path d="M1583.65,610h118.84" style="fill:#fff;stroke:#336580;stroke-linecap:round;stroke-miterlimit:10;stroke-width:4px"/><path d="M1784.46,578a12.69,12.69,0,0,0-5.71,16.86,12.52,12.52,0,0,0,13.09,7.25" style="fill:none;stroke:#336580;stroke-linecap:round;stroke-miterlimit:10;stroke-width:4px"/><path d="M1785.73,602.48a17.84,17.84,0,0,0-4.74,7.28,19,19,0,0,0,10.87,23.8,17.35,17.35,0,0,0,6.18,1.2" style="fill:none;stroke:#336580;stroke-linecap:round;stroke-miterlimit:10;stroke-width:4px"/><path d="M1814.79,622.73a14.54,14.54,0,0,0-16.14,9.71,15,15,0,0,0-.61,2.32" style="fill:none;stroke:#336580;stroke-linecap:round;stroke-miterlimit:10;stroke-width:4px"/><path d="M1825.12,646.52a14.43,14.43,0,0,1-17.45,5.69,15.74,15.74,0,0,1-9.63-17.45" style="fill:none;stroke:#336580;stroke-linecap:round;stroke-miterlimit:10;stroke-width:4px"/><path d="M1863.49,630.7a22.65,22.65,0,0,1-1.1,10.13,21.09,21.09,0,0,1-27.64,12.95,22.17,22.17,0,0,1-9.63-7.26" style="fill:none;stroke:#336580;stroke-linecap:round;stroke-miterlimit:10;stroke-width:4px"/><path d="M1882.44,617.93a12.26,12.26,0,0,1-23.32,7.25" style="fill:none;stroke:#336580;stroke-linecap:round;stroke-miterlimit:10;stroke-width:4px"/><path d="M1840.53,527c-24,34.27-34.42,59.71-34.42,59.71" style="fill:none;stroke:#336580;stroke-linecap:round;stroke-miterlimit:10;stroke-width:4px"/><path d="M1868.63,511.44c-29,46.78-41.14,81.83-41.14,81.83" style="fill:none;stroke:#336580;stroke-linecap:round;stroke-miterlimit:10;stroke-width:4px"/><path d="M1891.09,505.31c-31.83,60.76-43.34,104.1-43.34,104.1" style="fill:none;stroke:#336580;stroke-linecap:round;stroke-miterlimit:10;stroke-width:4px"/><path d="M1901.21,610.81h54.47" style="fill:#fff;stroke:#336580;stroke-linecap:round;stroke-miterlimit:10;stroke-width:4px"/><path d="M1998.25,610.81h5.92" style="fill:#fff;stroke:#336580;stroke-linecap:round;stroke-miterlimit:10;stroke-width:4px"/><path d="M1740.14,463.53a1.6,1.6,0,0,0,2.18.41c20.61-13.34,71.41-30.55,71.41-30.55,1.19-.07,2.14-.38,2.13-.68L1812.92,376c0-.3-1-.48-2.19-.41,0,0-46,12.38-61.42,23.92-1,.72-2.15.38-2.13.68C1747.9,414.37,1739.45,449.35,1740.14,463.53Z" style="fill:#fff;stroke:#336580;stroke-linecap:round;stroke-miterlimit:10;stroke-width:4px"/><path d="M1897.4,320.85c29.51-4.73,80.29,33.21,80.38,34.39,2.53,33.93-51.22,124.32-51.22,124.32s-12.15-39.83-76.58-21.41C1850,458.15,1842.63,329.65,1897.4,320.85Z" style="fill:#fff"/><path d="M1764.93,510.43s128.9-111.1,161.88-27.85-12.35,10.71-12.35,10.71" style="fill:none;stroke:#336580;stroke-linecap:round;stroke-miterlimit:10;stroke-width:4px"/><path d="M1988.68,349c-23.82,18.41-72.61,7.2-87.29-21.82s-4.73-63.42,27.23-83.19c44.73-27.66,92.9,20.83,94.17,21.75C2022.79,265.76,2028,327.82,1988.68,349Z" style="fill:#fff;stroke:#336580;stroke-linecap:round;stroke-miterlimit:10;stroke-width:4px"/><path d="M1848.79,455.78c7-37.37-6.11-119.59,48.86-134.41" style="fill:none;stroke:#336580;stroke-linecap:round;stroke-miterlimit:10;stroke-width:4px"/><path d="M1926.81,480.07c19.15-37.51,49-82.88,51.21-124.31" style="fill:none;stroke:#336580;stroke-linecap:round;stroke-miterlimit:10;stroke-width:4px"/><path d="M1981.39,354.59c59.56-5,65.49-49.25,65.49-49.25" style="fill:none;stroke:#336580;stroke-linecap:round;stroke-miterlimit:10;stroke-width:4px"/><path d="M2057.2,304.07c-3.19,1-7.85,1.63-10.51-.84-1.72-1.6-1.89-5.51-2.69-8.09-2-6.56.57-13.2,5.82-14.84s11.17,2.37,13.2,8.93S2062.45,302.44,2057.2,304.07Z" style="fill:#fff;stroke:#336580;stroke-linecap:round;stroke-miterlimit:10;stroke-width:4px"/><path d="M1895.26,321.36c-59.74-1.76-74.17,44-74.17,44" style="fill:none;stroke:#336580;stroke-linecap:round;stroke-miterlimit:10;stroke-width:4px"/><path d="M1811.82,366.93c3.29-.63,8-.74,10.35,2,1.53,1.79,1.26,5.69,1.77,8.34,1.29,6.75-2,13.06-7.45,14.09s-10.83-3.6-12.12-10.35S1806.42,368,1811.82,366.93Z" style="fill:#fff;stroke:#336580;stroke-linecap:round;stroke-miterlimit:10;stroke-width:4px"/></svg>