<svg xmlns="http://www.w3.org/2000/svg" viewBox="0 0 227.14 106.33"><title>prism-logo</title><path d="M14,26.6q10.43,0,16,3.8c3.71,2.53,5.58,6.68,5.58,12.43s-1.89,10-5.65,12.58-9.15,3.87-16.14,3.87H10.49V75.44H0V27.86a57.32,57.32,0,0,1,7.26-1C9.82,26.7,12.06,26.6,14,26.6Zm.68,9.27c-.77,0-1.52,0-2.26.07s-1.37.09-1.91.14V50h3.29q5.45,0,8.2-1.53t2.76-5.72a7.07,7.07,0,0,0-.7-3.34,5.56,5.56,0,0,0-2-2.12,8.82,8.82,0,0,0-3.2-1.12A25.27,25.27,0,0,0,14.66,35.87Z" style="fill:#317e8e"/><path d="M61.2,26.6q10.49,0,16.07,3.87t5.58,12a13.93,13.93,0,0,1-2.25,8.25,14.86,14.86,0,0,1-6.49,5q1.41,1.81,3,4.15c1,1.55,2.05,3.18,3.05,4.87s2,3.46,2.93,5.3,1.81,3.63,2.62,5.4H74c-.86-1.58-1.72-3.18-2.6-4.81s-1.77-3.2-2.7-4.73-1.83-3-2.73-4.36-1.8-2.61-2.7-3.73H58V75.44H47.55V27.86a57.27,57.27,0,0,1,7.1-1C57.09,26.7,59.27,26.6,61.2,26.6Zm.6,9.27c-.76,0-1.44,0-2,.07L58,36.08V49.17h3c3.94,0,6.77-.51,8.47-1.53S72,44.88,72,42.42a5.36,5.36,0,0,0-2.58-5.05C67.71,36.37,65.17,35.87,61.8,35.87Z" style="fill:#317e8e"/><path d="M113.62,75.44H103.14v-27S110.4,42,113.62,37.25Z" style="fill:#317e8e"/><path d="M145.5,67.15a14.45,14.45,0,0,0,3.67-.39,6.66,6.66,0,0,0,2.32-1,3.51,3.51,0,0,0,1.21-1.57,5.82,5.82,0,0,0,.33-2,4.72,4.72,0,0,0-2.15-3.94,30.87,30.87,0,0,0-7.39-3.38q-2.3-.83-4.58-1.91a16.63,16.63,0,0,1-4.1-2.72,13,13,0,0,1-3-4,12.82,12.82,0,0,1-1.14-5.67,14.62,14.62,0,0,1,1.21-6A12.78,12.78,0,0,1,135.35,30a15.34,15.34,0,0,1,5.38-2.89,23.1,23.1,0,0,1,7.12-1,28,28,0,0,1,8.14,1A37.27,37.27,0,0,1,161,29a15.88,15.88,0,0,1-5.86,7.38l-.85-.3a18.23,18.23,0,0,0-5.74-.8q-3.78,0-5.41,1.08a3.66,3.66,0,0,0-1.65,3.31,3.9,3.9,0,0,0,.61,2.23,5.83,5.83,0,0,0,1.71,1.63,14.49,14.49,0,0,0,2.55,1.33c1,.39,2,.8,3.2,1.22a68.91,68.91,0,0,1,6.32,2.75A17,17,0,0,1,160.33,52,11.57,11.57,0,0,1,163,56.28a17.71,17.71,0,0,1,.88,5.92q0,6.76-4.58,10.49T145.5,76.41a37.65,37.65,0,0,1-5.58-.38,36,36,0,0,1-4.4-.94,23.52,23.52,0,0,1-3.29-1.19c-.42-.19-1.06-.5-1.41-.68,0,0,1.65-6.51,4.68-7.89,0,0,1.71.63,2.51.88A25.94,25.94,0,0,0,145.5,67.15Z" style="fill:#317e8e"/><path d="M32.56,106.06V90.88h2.2a9.82,9.82,0,0,1,2.35.23,3.53,3.53,0,0,1,1.49.8,4.15,4.15,0,0,1,1,1.45,4.43,4.43,0,0,1,.37,1.77,3.67,3.67,0,0,1-1.2,2.76,3.56,3.56,0,0,1,1.84,1.44,4.23,4.23,0,0,1,.68,2.38,4.08,4.08,0,0,1-1.22,3,3.78,3.78,0,0,1-1.64,1,9.15,9.15,0,0,1-2.49.29Zm2.21-8.66h.69a2.47,2.47,0,0,0,1.81-.57,2.25,2.25,0,0,0,.57-1.67,2.11,2.11,0,0,0-.58-1.62A2.43,2.43,0,0,0,35.55,93h-.78Zm0,6.5h1.37a3.34,3.34,0,0,0,2.2-.6,2.16,2.16,0,0,0,.74-1.68,2.2,2.2,0,0,0-.71-1.65,3.6,3.6,0,0,0-2.48-.66H34.77Z" style="fill:#5c97a4"/><path d="M64.49,98.4a7.57,7.57,0,0,1,2.27-5.51,7.35,7.35,0,0,1,5.43-2.3,7.23,7.23,0,0,1,5.37,2.32,7.74,7.74,0,0,1,2.25,5.58A7.61,7.61,0,0,1,77.55,104,7.55,7.55,0,0,1,67,104.3,7.58,7.58,0,0,1,64.49,98.4Zm2.23,0a5.63,5.63,0,0,0,1.63,4.14,5.28,5.28,0,0,0,7.64,0,6,6,0,0,0,0-8.14,5.31,5.31,0,0,0-7.71,0A5.57,5.57,0,0,0,66.72,98.43Z" style="fill:#5c97a4"/><path d="M111.74,102.37h-6.27l-1.64,3.69h-2.38l7.25-16.14,7,16.14h-2.41Zm-.9-2.15-2.18-5.16-2.27,5.16Z" style="fill:#5c97a4"/><path d="M143.78,99.59l4.53,6.47h-2.7l-4.19-6.22H141v6.22h-2.21V90.88h2.59A6.28,6.28,0,0,1,145.6,92,4.2,4.2,0,0,1,147,95.33a4.42,4.42,0,0,1-.89,2.77A4,4,0,0,1,143.78,99.59ZM141,97.85h.71c2.09,0,3.14-.83,3.14-2.49s-1-2.33-3.06-2.33H141Z" style="fill:#5c97a4"/><path d="M171.8,106.06V90.88h3.07a10.86,10.86,0,0,1,3.49.45,6.41,6.41,0,0,1,2.5,1.5,7.41,7.41,0,0,1,2.27,5.64,7.3,7.3,0,0,1-2.37,5.66,6.85,6.85,0,0,1-2.48,1.51,11,11,0,0,1-3.45.42ZM174,103.9h1a8,8,0,0,0,2.48-.32,4.93,4.93,0,0,0,1.78-1.09,5.28,5.28,0,0,0,1.64-4,5.34,5.34,0,0,0-1.62-4A5.93,5.93,0,0,0,175,93h-1Z" style="fill:#5c97a4"/><path d="M226.5,63.25c-.25-4.32-.51-8.63-.81-12.93s-.62-8.42-1-12.4-.79-7.54-1.23-10.73v0h0C219.29,28,204.85,33.32,201,39c-5-4.11-15.46-10.86-22.45-11.83v0l0,0q-.67,4.8-1.24,10.76t-1,12.4q-.43,6.45-.81,12.93c-.24,4.32-.46,8.38-.63,12.19h10.21q.21-7,.54-15.33.33-8.13,1-16.4v0h0v0c5.55,1.81,9.06,5.32,14.52,10.64.35-.2,9.73-10.68,14.31-10.53.44,5.61.75,10.76,1,16.29s.41,10.64.54,15.33h10.22Q226.87,69.72,226.5,63.25Z" style="fill:#317e8e"/><path d="M102.15,43.58C100.68,45,94.53,1,95.34.6s10.49,16,10.49,16S103.62,42.14,102.15,43.58Z" style="fill:#adcbd1"/><path d="M115.06,11.44l-9.23,5.19S94.68,2.5,95.34.6s35.45,1.12,35,2.84S115.06,11.44,115.06,11.44Z" style="fill:#85b1bb"/><path d="M130.44,3.5c.85,1.68-27.55,43.37-28.17,40.14S106,16.69,106,16.69,129.59,1.81,130.44,3.5Z" style="fill:#5c97a4"/></svg>