<?xml version="1.0" encoding="utf-8"?>
<!DOCTYPE svg PUBLIC "-//W3C//DTD SVG 1.1//EN" "http://www.w3.org/Graphics/SVG/1.1/DTD/svg11.dtd">
<svg version="1.1" id="Layer_1" xmlns="http://www.w3.org/2000/svg" xmlns:xlink="http://www.w3.org/1999/xlink" x="0px" y="0px"
	 viewBox="0 0 614 148.3" enable-background="new 0 0 614 148.3" xml:space="preserve">
<path fill="#FFFFFF" d="M67.4,0H0v148h30v-44h35.4c47.3-1,49.3-44.7,49.3-44.7C118.6,0.9,67.4,0,67.4,0z M59.3,77H30V30h32.3
	c0,0,23.1,0.6,23.1,25.8C85.5,55.7,83.5,76,59.3,77z"/>
<path fill="#FFFFFF" d="M222.4,90.3c38.2-5.5,34.1-41.9,34.1-41.9C256.9,7.1,229.7,0.5,213.6,0C194-0.5,135,0,135,0v148h30V95h28
	l33.1,53H262L222.4,90.3z M206.8,68.8L164,69.1V27h42.7c0,0,21.5,1,20.2,25.6C226.9,52.6,225.9,68.8,206.8,68.8z"/>
<g>
	<path fill="#FFFFFF" d="M282.8,65.1c2,0,29.2-29.2,29.2-29.2l-0.2,112H283L282.8,65.1z"/>
	<polygon fill="#FFFFFF" points="283,29.1 312,0 283,0 	"/>
</g>
<path fill="#FFFFFF" d="M332.5,126.9l14.6-22.2c15.5,11.7,32.3,17.6,46.9,17.6c14.1,0,22.2-6,22.2-15.5v-0.5
	c0-11.1-15.2-14.9-32-20.1c-21.2-6-44.7-14.6-44.7-42v-0.5c0-27.1,22.5-43.7,51-43.7c17.9,0,37.4,6.2,52.6,16.3l-13,23.3
	C416.3,31.2,401.7,26,389.7,26c-12.7,0-20.1,6-20.1,14.4v0.5c0,10.3,15.5,14.6,32.3,20.1c20.9,6.5,44.5,16,44.5,41.8v0.5
	c0,30.1-23.3,45-53.2,45C372.9,148.3,350.4,141,332.5,126.9z"/>
<polygon fill="#FFFFFF" points="470,0 470,148 498,148 498,50.3 542.9,111 584,50 584,148 614,148 614,0 583.8,0 542.9,61.6
	500.3,-0.2 "/>
</svg>
