<svg xmlns="http://www.w3.org/2000/svg" viewBox="0 0 227.14 76.42"><title>prism-wite</title><path d="M14,26.6q10.43,0,16,3.8t5.58,12.44q0,8.7-5.65,12.57T13.78,59.28H10.49V75.44H0V27.86a57.32,57.32,0,0,1,7.26-1C9.82,26.7,12.06,26.6,14,26.6Zm.68,9.27c-.77,0-1.52,0-2.26.07s-1.37.09-1.91.14V50h3.29c3.64,0,6.37-.51,8.21-1.53s2.75-2.93,2.75-5.71a7.08,7.08,0,0,0-.7-3.35,5.48,5.48,0,0,0-2-2.12,8.77,8.77,0,0,0-3.19-1.12A25.48,25.48,0,0,0,14.66,35.87Z" style="fill:#fff"/><path d="M61.2,26.6q10.49,0,16.07,3.87t5.58,12a13.93,13.93,0,0,1-2.25,8.25,14.9,14.9,0,0,1-6.49,5q1.41,1.8,3,4.14c1,1.56,2.05,3.18,3.06,4.88s2,3.46,2.92,5.29,1.82,3.64,2.62,5.4H74l-2.6-4.81Q70,68.2,68.65,65.9t-2.73-4.36q-1.35-2.05-2.7-3.72H58V75.44H47.55V27.86a57.53,57.53,0,0,1,7.1-1C57.09,26.7,59.28,26.6,61.2,26.6Zm.61,9.27c-.76,0-1.45,0-2.05.07L58,36.08v13.1h3c3.94,0,6.77-.51,8.47-1.54S72,44.88,72,42.42a5.37,5.37,0,0,0-2.59-5.05Q66.85,35.87,61.81,35.87Z" style="fill:#fff"/><path d="M113.62,75.44H103.13v-27S110.4,42,113.62,37.25Z" style="fill:#fff"/><path d="M145.5,67.15a14.83,14.83,0,0,0,3.66-.38,6.67,6.67,0,0,0,2.32-1,3.56,3.56,0,0,0,1.22-1.56,5.9,5.9,0,0,0,.33-2,4.73,4.73,0,0,0-2.15-3.94,30,30,0,0,0-7.4-3.38c-1.52-.56-3-1.2-4.57-1.92a16.88,16.88,0,0,1-4.1-2.71,13.18,13.18,0,0,1-3-4,12.79,12.79,0,0,1-1.14-5.67,14.62,14.62,0,0,1,1.21-6A12.78,12.78,0,0,1,135.35,30a15.34,15.34,0,0,1,5.38-2.89,23.1,23.1,0,0,1,7.12-1,28,28,0,0,1,8.14,1A37.27,37.27,0,0,1,161,29a15.83,15.83,0,0,1-5.86,7.38l-.85-.3a18.23,18.23,0,0,0-5.74-.8q-3.78,0-5.41,1.08a3.66,3.66,0,0,0-1.65,3.31,4,4,0,0,0,.6,2.23,6,6,0,0,0,1.72,1.64,15.19,15.19,0,0,0,2.55,1.32c1,.39,2,.8,3.2,1.22,2.42.93,4.52,1.85,6.32,2.75A17,17,0,0,1,160.33,52,11.65,11.65,0,0,1,163,56.28a17.71,17.71,0,0,1,.88,5.92q0,6.76-4.58,10.49T145.5,76.42a36.27,36.27,0,0,1-5.58-.39,34.22,34.22,0,0,1-4.4-.94,24.24,24.24,0,0,1-3.3-1.18c-.42-.19-1.05-.51-1.41-.69,0,0,1.65-6.51,4.69-7.89,0,0,1.71.64,2.51.88A25.6,25.6,0,0,0,145.5,67.15Z" style="fill:#fff"/><path d="M226.5,63.25q-.37-6.48-.81-12.93t-1-12.4q-.57-5.94-1.23-10.73v0h0C219.29,28,204.85,33.32,201,39c-5-4.12-15.46-10.87-22.45-11.84v0l0,0q-.67,4.8-1.24,10.76t-1,12.4q-.43,6.45-.81,12.93c-.24,4.32-.46,8.38-.63,12.19h10.21q.21-7,.54-15.33.33-8.13,1-16.4v0h0v0c5.55,1.81,9.06,5.33,14.52,10.65.35-.21,9.73-10.69,14.31-10.54.44,5.62.75,10.77,1,16.29s.41,10.64.54,15.33h10.22Q226.87,69.72,226.5,63.25Z" style="fill:#fff"/><path d="M102.15,43.58C100.68,45,94.53,1,95.34.6S106,16.69,106,16.69,103.62,42.14,102.15,43.58Z" style="fill:#5c97a4"/><path d="M115.06,11.44,106,16.69S94.68,2.5,95.34.6s35.45,1.12,35,2.84S115.06,11.44,115.06,11.44Z" style="fill:#85b1bb"/><path d="M130.44,3.5c.85,1.68-27.55,43.37-28.17,40.14S106,16.69,106,16.69,129.59,1.81,130.44,3.5Z" style="fill:#adcbd1"/></svg>
